<svg width="64" height="64" viewBox="0 0 64 64" xmlns="http://www.w3.org/2000/svg" role="img" aria-labelledby="title">
  <title id="title">Örnflychts Förlag ikon</title>
  <rect width="64" height="64" fill="#f8f6f1" rx="8"/>
  <path fill="#2c3e50" opacity="0.85" d="M 12 28 Q 8 24 6 32 Q 8 36 12 34 Z"/>
  <path fill="#3498db" opacity="0.9" d="M 16 26 Q 12 22 10 30 Q 12 36 16 32 Z"/>
  <rect x="26" y="20" width="12" height="24" fill="#2c3e50" rx="2"/>
  <line x1="28" y1="25" x2="36" y2="25" stroke="#3498db" stroke-width="1.5" opacity="0.6"/>
  <line x1="28" y1="31" x2="36" y2="31" stroke="#e74c3c" stroke-width="1.5" opacity="0.6"/>
  <line x1="28" y1="37" x2="36" y2="37" stroke="#f39c12" stroke-width="1.5" opacity="0.6"/>
  <path fill="#e74c3c" opacity="0.9" d="M 48 26 Q 52 22 54 30 Q 52 36 48 32 Z"/>
  <path fill="#f39c12" opacity="0.85" d="M 52 28 Q 56 24 58 32 Q 56 36 52 34 Z"/>
  <circle cx="29" cy="22" r="1.5" fill="#f39c12"/>
  <circle cx="35" cy="22" r="1.5" fill="#f39c12"/>
  <path stroke="#e74c3c" stroke-width="1" fill="none" d="M 32 24 Q 30 24 29 25" stroke-linecap="round"/>
  <path stroke="#e74c3c" stroke-width="1" fill="none" d="M 32 24 Q 34 24 35 25" stroke-linecap="round"/>
</svg>
