<svg width="64" height="64" viewBox="0 0 64 64" xmlns="http://www.w3.org/2000/svg">
  <rect width="64" height="64" fill="#fff9f0" rx="8"/>
  
  <!-- Vänster vingar -->
  <path fill="#d946ef" d="M 12 32 L 6 28 L 8 36 Z" opacity="0.9"/>
  <path fill="#ec4899" d="M 18 32 L 14 26 L 16 38 Z" opacity="0.85"/>
  
  <!-- Bok i mitten -->
  <rect x="27" y="22" width="10" height="20" fill="#1e293b" rx="1"/>
  <line x1="27" y1="27" x2="37" y2="27" stroke="#f472b6" stroke-width="1.5"/>
  <line x1="27" y1="32" x2="37" y2="32" stroke="#60a5fa" stroke-width="1.5"/>
  <line x1="27" y1="37" x2="37" y2="37" stroke="#fbbf24" stroke-width="1.5"/>
  
  <!-- Höger vingar -->
  <path fill="#0ea5e9" d="M 52 32 L 58 28 L 56 36 Z" opacity="0.85"/>
  <path fill="#06b6d4" d="M 46 32 L 50 26 L 48 38 Z" opacity="0.9"/>
  
  <!-- Ansiktsdrag -->
  <circle cx="30" cy="24" r="1.2" fill="#fbbf24"/>
  <circle cx="34" cy="24" r="1.2" fill="#fbbf24"/>
  <path stroke="#f472b6" stroke-width="1" fill="none" d="M 32 29 Q 31 30 30 31" stroke-linecap="round"/>
  <path stroke="#f472b6" stroke-width="1" fill="none" d="M 32 29 Q 33 30 34 31" stroke-linecap="round"/>
</svg>