<svg xmlns="http://www.w3.org/2000/svg" viewBox="0 0 64 64">
<circle cx="32" cy="32" r="32" fill="#fffaf0"/>
<g fill="#16372d">
<ellipse cx="23.5" cy="47" rx="4" ry="6.5" transform="rotate(12,23.5,47)"/>
<g transform="translate(21,55) rotate(-12)"><path d="M0,0 C -10,-8 -8,-19 0,-27 C 5,-18 6,-7 0,0 Z"/></g>
<g transform="translate(21,55) rotate(-34)"><path d="M0,0 C -9,-7 -7,-17 0,-24 C 4.5,-16 5.5,-6.2 0,0 Z"/></g>
<g transform="translate(21,55) rotate(-56)"><path d="M0,0 C -8,-6 -6.2,-15 0,-21 C 4,-14 5,-5.5 0,0 Z"/></g>
<g transform="translate(21,55) rotate(-80)"><path d="M0,0 C -7,-5 -5.4,-13 0,-18 C 3.5,-12 4.5,-4.5 0,0 Z"/></g>
<ellipse cx="40.5" cy="47" rx="4" ry="6.5" transform="rotate(-12,40.5,47)"/>
<g transform="translate(43,55) rotate(12)"><path d="M0,0 C 10,-8 8,-19 0,-27 C -5,-18 -6,-7 0,0 Z"/></g>
<g transform="translate(43,55) rotate(34)"><path d="M0,0 C 9,-7 7,-17 0,-24 C -4.5,-16 -5.5,-6.2 0,0 Z"/></g>
<g transform="translate(43,55) rotate(56)"><path d="M0,0 C 8,-6 6.2,-15 0,-21 C -4,-14 -5,-5.5 0,0 Z"/></g>
<g transform="translate(43,55) rotate(80)"><path d="M0,0 C 7,-5 5.4,-13 0,-18 C -3.5,-12 -4.5,-4.5 0,0 Z"/></g>
</g>
<circle cx="32" cy="58" r="2.2" fill="#a48243"/>
</svg>
